<?xml version="1.0" standalone="no"?>
<!DOCTYPE svg PUBLIC "-//W3C//DTD SVG 20010904//EN"
 "http://www.w3.org/TR/2001/REC-SVG-20010904/DTD/svg10.dtd">
<svg version="1.0" xmlns="http://www.w3.org/2000/svg"
 width="30.000000pt" height="30.000000pt" viewBox="0 0 512.000000 512.000000"
 preserveAspectRatio="xMidYMid meet">

<g transform="translate(0.000000,512.000000) scale(0.100000,-0.100000)"
fill="#000000" stroke="none">
<path d="M310 4823 c-55 -38 -72 -91 -46 -145 29 -60 39 -62 281 -68 l219 -5
63 -260 c34 -143 62 -266 63 -272 0 -10 -81 -13 -371 -13 l-371 0 -34 -34
c-39 -39 -45 -86 -19 -136 32 -63 -8 -60 915 -60 933 0 887 3 916 -65 18 -44
18 -69 -1 -105 -31 -60 -33 -60 -495 -60 -476 0 -432 10 -405 -90 22 -83 25
-80 -70 -80 -103 0 -140 -15 -162 -67 -20 -48 -10 -92 28 -129 l30 -29 567 -5
c435 -4 572 -8 589 -18 48 -27 66 -98 38 -152 -31 -60 -35 -60 -480 -60 -459
0 -417 10 -390 -90 8 -30 15 -61 15 -67 0 -10 -98 -13 -457 -13 -272 0 -472
-4 -494 -10 -50 -14 -80 -50 -86 -103 -5 -41 -2 -48 30 -83 l35 -39 970 -5
c1054 -5 987 -1 1018 -61 18 -36 18 -73 -1 -109 -31 -60 -34 -60 -485 -60
-321 0 -410 -3 -410 -12 0 -7 9 -47 20 -88 10 -41 17 -76 15 -78 -2 -2 -22 -8
-46 -13 -75 -17 -152 -61 -212 -120 -178 -178 -178 -456 -1 -633 72 -72 155
-113 261 -128 l82 -12 -49 -28 c-62 -35 -142 -117 -179 -182 -90 -159 -85
-372 13 -521 182 -274 556 -315 784 -85 231 234 182 628 -99 789 l-54 31 1104
0 1104 0 -59 -38 c-274 -177 -314 -552 -84 -782 200 -200 513 -200 710 -1 230
233 190 606 -84 783 l-59 38 82 0 c127 0 181 33 181 112 0 48 -16 83 -49 105
-25 17 -122 18 -1698 23 l-1671 5 -43 30 c-112 79 -121 252 -18 340 18 15 44
32 58 38 19 9 424 13 1521 17 l1495 5 67 32 c82 39 155 108 191 183 30 61 447
1758 447 1817 0 26 -8 43 -34 69 l-34 34 -1916 0 -1916 0 -9 23 c-5 12 -43
168 -86 347 -42 178 -83 337 -91 352 -28 55 -48 58 -346 58 -241 0 -276 -2
-298 -17z m1446 -3791 c103 -53 154 -133 154 -241 -1 -119 -50 -200 -148 -248
-137 -67 -303 -11 -368 125 -41 84 -27 211 31 287 74 96 225 131 331 77z
m2594 12 c103 -30 190 -149 190 -259 0 -96 -69 -203 -158 -246 -66 -32 -168
-32 -234 0 -89 43 -158 150 -158 246 0 142 128 272 271 274 19 1 59 -6 89 -15z"/>
</g>
</svg>
